<svg xmlns="http://www.w3.org/2000/svg" width="146" height="108" fill="none"><g clip-path="url(#a)"><path fill="#000" fill-rule="evenodd" d="M37.153 53.435c-.945.45-1.89.912-2.663 1.346-11.796 6.537-22.842 16.233-30.315 27.677.544-3.763.52-7.654.048-11.303-.086-.573-.601-.98-1.117-.908-.601.071-1.031.595-.945 1.167.687 5.642.343 11.902-1.719 17.235-.172.54.086 1.144.602 1.35.139.048.278.07.412.069.346.043.71-.087.932-.375 3.695-4.457 9.967-6.28 15.552-6.98.516-.071.945-.595.86-1.168a1.072 1.072 0 0 0-1.204-.907c-4.112.522-8.586 1.67-12.296 3.899 7.347-11.572 18.387-21.372 30.221-27.928.39-.224.85-.456 1.316-.69l.145-.074a6.106 6.106 0 0 0 1.117 3.174c.945 1.256 2.405 2.11 4.124 2.583 2.405.653 5.24.581 7.818-.017 1.976-.48 3.78-1.299 4.898-2.31.945-.816 1.46-1.768 1.546-2.771.086-1.057-.343-2.23-1.632-3.41-2.148-2.045-5.07-2.653-8.249-2.393-2.32.192-4.725.864-6.959 1.7.258-.698.602-1.452 1.031-2.265 3.437-6.106 11.685-11.86 21.394-16.628 14.778-7.241 32.994-12.15 43.132-12.198.516-.003 1.031-.473 1.031-1.05 0-.578-.515-1.045-1.031-1.042-10.396.05-28.955 5.02-44.077 12.412-10.138 4.988-18.73 11.104-22.254 17.492-.859 1.607-1.46 3.04-1.718 4.313Zm1.89 1.454c-.085 1.177.172 2.124.688 2.874.687.906 1.804 1.48 3.007 1.821 2.062.567 4.554.484 6.788-.035 1.546-.372 3.007-.965 3.952-1.736.515-.435.86-.909.945-1.455 0-.558-.344-1.125-.945-1.747-1.804-1.64-4.21-2.033-6.702-1.825-2.577.217-5.413 1.095-7.733 2.103Z" clip-rule="evenodd"/><path fill="url(#b)" fill-rule="evenodd" d="M37.153 53.435c-.945.45-1.89.912-2.663 1.346-11.796 6.537-22.842 16.233-30.315 27.677.544-3.763.52-7.654.048-11.303-.086-.573-.601-.98-1.117-.908-.601.071-1.031.595-.945 1.167.687 5.642.343 11.902-1.719 17.235-.172.54.086 1.144.602 1.35.139.048.278.07.412.069.346.043.71-.087.932-.375 3.695-4.457 9.967-6.28 15.552-6.98.516-.071.945-.595.86-1.168a1.072 1.072 0 0 0-1.204-.907c-4.112.522-8.586 1.67-12.296 3.899 7.347-11.572 18.387-21.372 30.221-27.928.39-.224.85-.456 1.316-.69l.145-.074a6.106 6.106 0 0 0 1.117 3.174c.945 1.256 2.405 2.11 4.124 2.583 2.405.653 5.24.581 7.818-.017 1.976-.48 3.78-1.299 4.898-2.31.945-.816 1.46-1.768 1.546-2.771.086-1.057-.343-2.23-1.632-3.41-2.148-2.045-5.07-2.653-8.249-2.393-2.32.192-4.725.864-6.959 1.7.258-.698.602-1.452 1.031-2.265 3.437-6.106 11.685-11.86 21.394-16.628 14.778-7.241 32.994-12.15 43.132-12.198.516-.003 1.031-.473 1.031-1.05 0-.578-.515-1.045-1.031-1.042-10.396.05-28.955 5.02-44.077 12.412-10.138 4.988-18.73 11.104-22.254 17.492-.859 1.607-1.46 3.04-1.718 4.313Zm1.89 1.454c-.085 1.177.172 2.124.688 2.874.687.906 1.804 1.48 3.007 1.821 2.062.567 4.554.484 6.788-.035 1.546-.372 3.007-.965 3.952-1.736.515-.435.86-.909.945-1.455 0-.558-.344-1.125-.945-1.747-1.804-1.64-4.21-2.033-6.702-1.825-2.577.217-5.413 1.095-7.733 2.103Z" clip-rule="evenodd"/><path fill="url(#c)" d="M54.872 9.824h51.386v42.235H54.872z"/><path fill="url(#d)" d="M41.485 9.824h64.773v54.868H41.485z"/></g><path fill="#666" d="M98.276 25.832c-.34-.136-.691-.284-1.054-.442a3.5 3.5 0 0 1-.986-.714c-.295-.295-.555-.714-.782-1.258a10.498 10.498 0 0 1-.476-1.938 16.751 16.751 0 0 1-.068-2.21c0-1.179.08-2.199.238-3.06.181-.884.453-1.78.816-2.686.045-.068.125-.26.238-.578.136-.34.283-.703.442-1.088.181-.386.317-.68.408-.884.181-.386.453-.896.816-1.53.385-.658.793-1.292 1.224-1.904a52.176 52.176 0 0 1 1.632-2.312 14.07 14.07 0 0 1 1.224-1.428c.385-.386.816-.748 1.292-1.088a70.391 70.391 0 0 1 1.904-1.326 2.916 2.916 0 0 1 1.632-.578 3.15 3.15 0 0 1 1.7.408c.521.272.907.68 1.156 1.224.249.476.374 1.054.374 1.734a8.03 8.03 0 0 1-.306 2.108 9.717 9.717 0 0 1-.85 2.074c-.363.657-.782 1.201-1.258 1.632-.295.272-.567.374-.816.306-.227-.068-.499-.25-.816-.544a8.4 8.4 0 0 1-.34-.68c0-.068.045-.114.136-.136.136-.159.317-.43.544-.816.227-.386.453-.794.68-1.224a8.89 8.89 0 0 0 .476-1.088c.181-.952.306-1.62.374-2.006.068-.408 0-.714-.204-.918-.091-.09-.227-.125-.408-.102-.159.022-.431.136-.816.34-.521.226-1.201.736-2.04 1.53a18.07 18.07 0 0 0-2.312 2.584 62.033 62.033 0 0 0-2.278 3.196 11.875 11.875 0 0 0-1.394 2.856c-.045.09-.125.26-.238.51l-.136.374c.023.09-.011.317-.102.68-.09.34-.193.634-.306.884a16.911 16.911 0 0 0-.442 3.264c-.045 1.11.011 2.096.17 2.958.181.861.442 1.462.782 1.802.295.204.691.272 1.19.204.521-.068 1.111-.227 1.768-.476a46.82 46.82 0 0 0 2.006-.816 11.476 11.476 0 0 0 1.496-.748c.453-.272.793-.51 1.02-.714.181-.136.408-.272.68-.408.295-.159.544-.238.748-.238.317-.114.499-.159.544-.136.045.022.068.124.068.306 0 .317-.181.668-.544 1.054-.34.385-.782.736-1.326 1.054a5.167 5.167 0 0 1-.714.578 3.948 3.948 0 0 1-.918.476c-.476.362-1.065.714-1.768 1.054-.703.34-1.417.6-2.142.782-.703.181-1.349.215-1.938.102Zm13.347-1.904c-.431.113-.782.022-1.054-.272-.249-.295-.397-.748-.442-1.36-.045-.612.023-1.338.204-2.176.113-.272.204-.533.272-.782.068-.272.102-.488.102-.646.045-.227.136-.556.272-.986a47.317 47.317 0 0 1 .884-2.652c.159-.386.261-.624.306-.714.091 0 .17-.08.238-.238a1.2 1.2 0 0 0 .102-.476c0-.182.034-.386.102-.612.091-.227.181-.386.272-.476 0-.114.023-.238.068-.374.068-.159.102-.284.102-.374 0-.09.023-.182.068-.272a.452.452 0 0 0 .102-.272c.159-.295.363-.76.612-1.394.272-.658.555-1.383.85-2.176.317-.794.612-1.576.884-2.346s.487-1.417.646-1.938c.181-.544.272-.873.272-.986 0-.182.045-.318.136-.408.091-.09.227-.136.408-.136a.503.503 0 0 1 .238-.136 1.57 1.57 0 0 1 .306-.034l.136.136.408.408a.84.84 0 0 1 .306.544c.045.204.068.442.068.714 0 .294-.034.555-.102.782a7.744 7.744 0 0 1-.408.986l-.952 2.006c-.181.453-.374.884-.578 1.292-.204.385-.306.623-.306.714 0 .09-.045.226-.136.408-.068.181-.147.408-.238.68-.091.181-.215.453-.374.816-.159.34-.329.714-.51 1.122-.159.385-.295.725-.408 1.02-.113.272-.17.43-.17.476 0 .09-.011.181-.034.272 0 .09-.045.181-.136.272-.091 0-.147.068-.17.204v.17c0 .226-.181.827-.544 1.802a304.56 304.56 0 0 1-1.02 3.434c-.295 1.042-.442 1.881-.442 2.516 0 .544-.011.906-.034 1.088-.023.158-.125.283-.306.374Zm5.098-1.088a1.714 1.714 0 0 1-.408-.68 2.509 2.509 0 0 1-.068-.816c.023-.272.08-.499.17-.68 0-.182.023-.318.068-.408.068-.114.091-.216.068-.306-.022-.09 0-.25.068-.476.068-.227.136-.442.204-.646.159-.363.329-.794.51-1.292a57.11 57.11 0 0 0 .51-1.53c.159-.499.295-.93.408-1.292.114-.363.182-.59.204-.68 0-.272.182-.42.544-.442.272-.09.476-.09.612 0 .136.068.318.283.544.646.182.181.25.453.204.816-.045.362-.192.816-.442 1.36-.09.181-.204.442-.34.782-.113.34-.192.646-.238.918-.09.181-.204.442-.34.782-.113.317-.215.623-.306.918-.045.113-.09.283-.136.51-.045.204-.102.43-.17.68-.068.226-.158.43-.272.612-.204.93-.396 1.473-.578 1.632-.158.158-.43.022-.816-.408Zm3.298-13.804a1.582 1.582 0 0 1-.306-.476 2.562 2.562 0 0 1-.17-.612c-.022-.204 0-.306.068-.306.182-.023.397-.216.646-.578.25-.363.352-.68.306-.952 0-.09.034-.17.102-.238a.43.43 0 0 1 .238-.17c.272-.182.533-.204.782-.068.272.113.522.351.748.714.204.43.261.793.17 1.088-.09.272-.34.657-.748 1.156-.34.453-.657.702-.952.748-.272.045-.566-.057-.884-.306Zm6.24 14.11c-.499 0-.873-.023-1.122-.068-.249-.046-.442-.114-.578-.204a4.706 4.706 0 0 1-.476-.374 5.488 5.488 0 0 0-.34-.578 3.032 3.032 0 0 0-.34-.442c-.091-.34-.136-.782-.136-1.326a13.34 13.34 0 0 1 .204-1.768c.136-.635.317-1.224.544-1.768a5.57 5.57 0 0 0 .238-.544l.102-.272c0-.114.136-.386.408-.816.295-.43.612-.884.952-1.36.363-.476.657-.816.884-1.02.159-.182.397-.374.714-.578.34-.204.635-.352.884-.442a9.8 9.8 0 0 1 .748-.238c.272-.068.578-.102.918-.102.317 0 .612.068.884.204.272.136.533.374.782.714.408.408.635.816.68 1.224.068.385.057.782-.034 1.19-.113.453-.261.804-.442 1.054-.181.226-.385.328-.612.306-.227-.023-.487-.193-.782-.51-.091-.182-.136-.329-.136-.442 0-.136.045-.329.136-.578a1.814 1.814 0 0 0 0-.986c-.091-.34-.238-.51-.442-.51-.295 0-.623.136-.986.408a7.86 7.86 0 0 0-1.054.952c-.159.181-.385.464-.68.85-.272.362-.544.77-.816 1.224-.272.43-.499.85-.68 1.258a124.54 124.54 0 0 1-.612 1.802l-.204.68c0 .09.023.181.068.272a.326.326 0 0 1 .102.238c0 .272.159.487.476.646.249.158.544.25.884.272.34 0 .759-.114 1.258-.34.363-.182.703-.42 1.02-.714.34-.295.691-.556 1.054-.782.249-.159.442-.295.578-.408.159-.114.238-.125.238-.034 0 .09.034.136.102.136.068 0 .147-.046.238-.136.136-.182.283-.295.442-.34.159-.068.295-.09.408-.068.136 0 .204.034.204.102a.518.518 0 0 0 .136.51c0 .09-.034.215-.102.374a.846.846 0 0 1-.204.34 3.55 3.55 0 0 1-.51.544 12.12 12.12 0 0 1-.578.544l-.272.204c-.091-.023-.181 0-.272.068l-.238.238a3.174 3.174 0 0 1-.51.374 1.032 1.032 0 0 1-.374.102c-.159.09-.283.147-.374.17-.068.022-.102.08-.102.17a1.85 1.85 0 0 1-.85.476c-.317.068-.793.102-1.428.102Zm17.122.85c-.091.09-.34.124-.748.102a2.96 2.96 0 0 1-1.088-.272.737.737 0 0 0-.238-.204 4.116 4.116 0 0 1-.34-.306 11.66 11.66 0 0 1-.238-.306 3.266 3.266 0 0 0-.34-.374 13.558 13.558 0 0 0-.544-.578l-.374-.374c-.091-.182-.272-.408-.544-.68a29 29 0 0 0-.782-.816 4.326 4.326 0 0 0-.476-.578 2.309 2.309 0 0 0-.408-.34c-.113-.09-.204-.136-.272-.136l-.136.442c-.068.272-.17.623-.306 1.054-.113.408-.238.827-.374 1.258l-.272.986c-.159.317-.295.532-.408.646a.598.598 0 0 1-.442.17c-.249 0-.476-.114-.68-.34-.181-.227-.272-.556-.272-.986-.091-.318.023-1.009.34-2.074.317-1.066.805-2.426 1.462-4.08.091-.34.204-.692.34-1.054.136-.386.249-.703.34-.952.227-.748.465-1.44.714-2.074.272-.658.555-1.315.85-1.972.295-.68.601-1.406.918-2.176l.442-.884c.091-.204.193-.408.306-.612.113-.227.283-.556.51-.986.499-.93.895-1.655 1.19-2.176.295-.522.521-.907.68-1.156.159-.25.295-.43.408-.544a.923.923 0 0 1 .408-.238.85.85 0 0 1 .476 0 .637.637 0 0 1 .408.238c.181.181.283.374.306.578.045.181 0 .43-.136.748-.113.317-.34.76-.68 1.326a7.787 7.787 0 0 1-.442.884l-.34.544a22.08 22.08 0 0 0-.544.952 2.445 2.445 0 0 1-.204.442c-.091.158-.193.238-.306.238 0 .068-.034.204-.102.408a4.36 4.36 0 0 1-.238.578c-.068.25-.181.521-.34.816a7.385 7.385 0 0 0-.306.68 15.21 15.21 0 0 1-.544 1.122c-.227.476-.453.94-.68 1.394-.204.43-.329.77-.374 1.02 0 .09.068.08.204-.034a2.94 2.94 0 0 1 .442-.306c.34-.272.725-.544 1.156-.816.453-.295.884-.544 1.292-.748.431-.227.782-.363 1.054-.408.34-.09.612-.136.816-.136.227 0 .453.045.68.136.181.09.329.215.442.374.136.158.249.34.34.544.113.204.193.453.238.748 0 .204-.079.544-.238 1.02-.159.476-.351.94-.578 1.394-.227.43-.453.736-.68.918a1.844 1.844 0 0 0-.374.204l-.136.102c0 .09-.045.204-.136.34-.068.136-.193.25-.374.34a4.97 4.97 0 0 0-.306.34c-.113.136-.17.238-.17.306v.17c-.091 0-.227.068-.408.204-.159.136-.363.294-.612.476-.249.25-.431.385-.544.408a4.122 4.122 0 0 0-.408.136.423.423 0 0 1-.17.102 1.286 1.286 0 0 1-.17.068l-.136.068c-.023.022-.034.056-.034.102 0 .09.102.283.306.578.227.272.487.578.782.918.317.34.612.657.884.952.295.272.51.453.646.544.227.09.385.25.476.476.113.204.181.42.204.646.023.204 0 .362-.068.476Zm-4.08-6.018c.113-.09.351-.272.714-.544.363-.295.759-.612 1.19-.952.431-.363.816-.703 1.156-1.02.363-.34.612-.59.748-.748.159-.159.317-.43.476-.816.159-.386.181-.692.068-.918-.023-.09-.227-.046-.612.136-.385.181-.827.396-1.326.646-.385.226-.839.521-1.36.884-.499.362-.975.748-1.428 1.156-.431.408-.759.804-.986 1.19-.045.158 0 .34.136.544.136.204.317.362.544.476.227.09.453.08.68-.034ZM109.734 50.5c-.113-.046-.283-.159-.51-.34-.227-.182-.419-.488-.578-.918-.159-.454-.238-1.077-.238-1.87.023-.68.034-1.213.034-1.598.023-.386-.057-.578-.238-.578s-.533.181-1.054.544c-.499.34-1.077.804-1.734 1.394a32.634 32.634 0 0 0-2.006 1.972c-.227.25-.453.487-.68.714-.204.204-.408.34-.612.408-.204.045-.442-.034-.714-.238l-.374-.306a.688.688 0 0 1-.204-.34 1.002 1.002 0 0 1 .034-.442l.782-2.244a36.4 36.4 0 0 0 .748-1.768c.136-.386.204-.624.204-.714 0-.114-.034-.159-.102-.136-.181.022-.453.136-.816.34-.363.181-.601.362-.714.544-.091 0-.227.102-.408.306a3.49 3.49 0 0 1-.68.578c-.159.272-.476.623-.952 1.054-.453.43-.907.872-1.36 1.326-.295.25-.59.555-.884.918l-.714.952c-.181.272-.306.408-.374.408a1.49 1.49 0 0 1-.816-.238c-.227-.159-.397-.42-.51-.782-.181-.386-.181-.918 0-1.598.181-.703.385-1.61.612-2.72.09-.34.147-.59.17-.748a3.64 3.64 0 0 1 .102-.476l.306-.816.714-1.632c.159-.43.25-.748.272-.952.045-.227.068-.386.068-.476 0-.227.057-.42.17-.578.136-.159.295-.272.476-.34a.8.8 0 0 1 .51-.034c.25.045.465.17.646.374.204.204.317.487.34.85a2 2 0 0 1-.068.748c-.068.204-.136.396-.204.578l-.374.918c-.113.25-.26.612-.442 1.088-.181.476-.34.918-.476 1.326-.136.385-.204.612-.204.68.023.068.102.056.238-.034.136-.114.306-.26.51-.442.227-.204.453-.397.68-.578a13.236 13.236 0 0 1 1.598-1.292c.612-.43 1.19-.794 1.734-1.088.544-.295.963-.488 1.258-.578.385 0 .646.068.782.204.159.136.419.385.782.748a.958.958 0 0 1 .272.612c.023.25.011.487-.034.714-.023.09-.091.317-.204.68-.113.34-.227.668-.34.986l-.136.476.374-.34c.272-.227.567-.465.884-.714l.714-.612c.884-.68 1.655-1.11 2.312-1.292.657-.182 1.19.056 1.598.714.272.25.408.521.408.816.023.294.034.804.034 1.53.023.294.045.646.068 1.054.023.408.045.782.068 1.122.045.317.091.51.136.578.068.09.193.17.374.238.204.045.465.09.782.136.34.045.544.192.612.442.068.25-.079.487-.442.714a1.93 1.93 0 0 1-1.122.272 3.863 3.863 0 0 1-1.088-.204Zm9.675.238a2.99 2.99 0 0 1-1.666.714 3.55 3.55 0 0 1-1.802-.272 3.64 3.64 0 0 1-1.462-1.224 3.853 3.853 0 0 1-.748-1.7c-.113-.658-.124-1.508-.034-2.55.068-.884.352-1.768.85-2.652.499-.907 1.1-1.712 1.802-2.414.726-.703 1.44-1.19 2.142-1.462.34-.227.624-.329.85-.306.25 0 .624.022 1.122.068.522.068.907.17 1.156.306.272.136.488.317.646.544.34.34.567.68.68 1.02.114.317.17.634.17.952-.09.498-.43 1.11-1.02 1.836-.566.702-1.314 1.28-2.244 1.734a4.742 4.742 0 0 1-1.632.204c-.589-.023-1.076-.17-1.462-.442-.43-.182-.714-.148-.85.102-.136.226-.26.793-.374 1.7-.09.861-.022 1.496.204 1.904.227.385.533.612.918.68.454.09.805.158 1.054.204.272.022.601-.08.986-.306.363-.227.59-.352.68-.374a.777.777 0 0 0 .204-.136l.442-.442a4.02 4.02 0 0 1 .374-.34.424.424 0 0 1 .306-.136c.114 0 .216.056.306.17.091.09.182.158.272.204.227 0 .272.136.136.408-.113.272-.351.6-.714.986a7.507 7.507 0 0 1-1.292 1.02Zm-.034-7.208c.25-.114.51-.272.782-.476a3.98 3.98 0 0 0 .68-.714c.204-.272.306-.499.306-.68 0-.318-.147-.578-.442-.782-.294-.227-.736-.26-1.326-.102-.249.068-.532.238-.85.51-.317.25-.623.532-.918.85-.272.317-.498.6-.68.85-.158.25-.215.396-.17.442.068.113.261.204.578.272a5.28 5.28 0 0 0 1.054.034c.408-.023.737-.09.986-.204Zm8.405 2.618c-.635.113-1.054-.193-1.258-.918-.204-.726-.147-1.723.17-2.992.136-.272.249-.533.34-.782.091-.272.136-.488.136-.646.091-.295.204-.635.34-1.02.159-.408.317-.782.476-1.122.159-.363.272-.6.34-.714.091 0 .181-.08.272-.238a.818.818 0 0 0 .17-.476c0-.182.034-.386.102-.612.091-.227.181-.386.272-.476 0-.114.045-.238.136-.374.091-.136.136-.25.136-.34 0-.09.023-.17.068-.238a.326.326 0 0 0 .102-.238 21.5 21.5 0 0 0 .782-1.598c.34-.726.669-1.485.986-2.278.34-.794.623-1.496.85-2.108.227-.612.34-.986.34-1.122a.857.857 0 0 1 .204-.408c.091-.09.227-.114.408-.068a.452.452 0 0 1 .272-.102c.091-.023.181-.034.272-.034l.102.136c.091.09.215.226.374.408a.84.84 0 0 1 .306.544c.023.204.034.442.034.714-.023.43-.181.918-.476 1.462-.295.544-.623 1.144-.986 1.802-.227.43-.453.838-.68 1.224-.204.385-.306.623-.306.714 0 .09-.045.226-.136.408a10.74 10.74 0 0 0-.306.68c-.136.226-.283.498-.442.816l-.442.884c-.113.25-.17.408-.17.476-.023.09-.057.181-.102.272a.601.601 0 0 1-.17.272c-.091 0-.147.068-.17.204v.17c0 .09-.057.306-.17.646a6.973 6.973 0 0 1-.476 1.156c-.431 1.201-.737 2.164-.918 2.89-.181.702-.295 1.303-.34 1.802-.045.544-.091.861-.136.952-.023.09-.125.181-.306.272Zm-1.836 5.44c-.431.158-.793.238-1.088.238-.272-.023-.578-.159-.918-.408-.431-.408-.578-.816-.442-1.224.159-.43.533-.85 1.122-1.258.408-.25.703-.386.884-.408.204-.023.51.056.918.238.68.43.975.906.884 1.428-.068.521-.521.986-1.36 1.394Z"/><defs><linearGradient id="b" x1=".389" x2="106.233" y1="54.647" y2="54.647" gradientUnits="userSpaceOnUse"><stop stop-color="#FF2F2F"/><stop offset=".363" stop-color="#EF7B16"/><stop offset=".698" stop-color="#8A43E1"/><stop offset="1" stop-color="#D511FD"/></linearGradient><linearGradient id="c" x1="108.233" x2="56.424" y1="17.743" y2="35.476" gradientUnits="userSpaceOnUse"><stop offset=".174" stop-color="#F1F0EE"/><stop offset="1" stop-color="#F1F0EE" stop-opacity="0"/></linearGradient><linearGradient id="d" x1="108.748" x2="43.038" y1="20.112" y2="41.934" gradientUnits="userSpaceOnUse"><stop offset=".174" stop-color="#F1F0EE"/><stop offset="1" stop-color="#F1F0EE" stop-opacity="0"/></linearGradient><clipPath id="a"><path fill="#fff" d="M.39 1.85h105.868v105.869H.39z"/></clipPath></defs></svg>